HIERARCHY
ROOT Hips
{
	OFFSET -0.001795 -0.223333 0.028219
	CHANNELS 6 Xposition Yposition Zposition Zrotation Yrotation Xrotation 
	JOINT LeftUpLeg
	{
		OFFSET 0.069520 -0.091406 -0.006815
		CHANNELS 3 Zrotation Yrotation Xrotation
		JOINT LeftLeg
		{
			OFFSET 0.034277 -0.375199 -0.004496
			CHANNELS 3 Zrotation Yrotation Xrotation
			JOINT LeftFoot
			{
				OFFSET -0.013596 -0.397961 -0.043693
				CHANNELS 3 Zrotation Yrotation Xrotation
				JOINT LeftToe
				{
					OFFSET 0.026358 -0.055791 0.119288
					CHANNELS 3 Zrotation Yrotation Xrotation
					End Site
					{
						OFFSET 0.000000 0.000000 0.000000
					}
				}
			}
		}
	}
	JOINT RightUpLeg
	{
		OFFSET -0.067670 -0.090522 -0.004320
		CHANNELS 3 Zrotation Yrotation Xrotation
		JOINT RightLeg
		{
			OFFSET -0.038290 -0.382569 -0.008850
			CHANNELS 3 Zrotation Yrotation Xrotation
			JOINT RightFoot
			{
				OFFSET 0.015774 -0.398415 -0.042312
				CHANNELS 3 Zrotation Yrotation Xrotation
				JOINT RightToe
				{
					OFFSET -0.025372 -0.048144 0.123348
					CHANNELS 3 Zrotation Yrotation Xrotation
					End Site
					{
						OFFSET 0.000000 0.000000 0.000000
					}
				}
			}
		}
	}
	JOINT Spine
	{
		OFFSET -0.002533 0.108963 -0.026696
		CHANNELS 3 Zrotation Yrotation Xrotation
		JOINT Spine1
		{
			OFFSET 0.005487 0.135180 0.001092
			CHANNELS 3 Zrotation Yrotation Xrotation
			JOINT Spine2
			{
				OFFSET 0.001457 0.052922 0.025425
				CHANNELS 3 Zrotation Yrotation Xrotation
				JOINT Neck
				{
					OFFSET -0.002778 0.213870 -0.042857
					CHANNELS 3 Zrotation Yrotation Xrotation
					JOINT Head
					{
						OFFSET 0.005152 0.064970 0.051349
						CHANNELS 3 Zrotation Yrotation Xrotation
						End Site
						{
							OFFSET 0.000000 0.000000 0.000000
						}
					}
				}
				JOINT LeftShoulder
				{
					OFFSET 0.078845 0.121749 -0.034090
					CHANNELS 3 Zrotation Yrotation Xrotation
					JOINT LeftArm
					{
						OFFSET 0.090977 0.030469 -0.008868
						CHANNELS 3 Zrotation Yrotation Xrotation
						JOINT LeftForeArm
						{
							OFFSET 0.259612 -0.012772 -0.027456
							CHANNELS 3 Zrotation Yrotation Xrotation
							JOINT LeftHand
							{
								OFFSET 0.249234 0.008986 -0.001171
								CHANNELS 3 Zrotation Yrotation Xrotation
								End Site
								{
									OFFSET 0.000000 0.000000 0.000000
								}
							}
						}
					}
				}
				JOINT RightShoulder
				{
					OFFSET -0.081759 0.118833 -0.038615
					CHANNELS 3 Zrotation Yrotation Xrotation
					JOINT RightArm
					{
						OFFSET -0.096012 0.032551 -0.009143
						CHANNELS 3 Zrotation Yrotation Xrotation
						JOINT RightForeArm
						{
							OFFSET -0.253742 -0.013329 -0.021401
							CHANNELS 3 Zrotation Yrotation Xrotation
							JOINT RightHand
							{
								OFFSET -0.255298 0.007772 -0.005559
								CHANNELS 3 Zrotation Yrotation Xrotation
								End Site
								{
									OFFSET 0.000000 0.000000 0.000000
								}
							}
						}
					}
				}
			}
		}
	}
}
MOTION
Frames: 17
Frame Time: 0.050000
-0.033998 0.962560 0.054623 1.067673 -13.383129 14.377977 1.698941 -0.914920 -14.478057 -4.611664 0.644405 0.688380 15.439382 25.634349 23.751735 0.000000 0.000000 0.000000 -6.423042 2.239101 -24.751160 4.615949 -0.149668 10.666735 6.879419 4.005753 16.344032 0.000000 0.000000 0.000000 0.902150 -0.562630 17.712455 12.763565 -2.063263 -24.789815 -0.304890 -4.575429 23.848647 -3.254140 1.543210 -26.760635 0.000000 0.000000 0.000000 -33.183214 1.182447 2.345585 -35.177421 -5.923462 -5.432351 -76.319719 -69.657110 65.624225 0.000000 0.000000 0.000000 21.459344 6.406614 -1.755929 39.497197 -10.705381 -7.258120 124.701678 79.992036 114.783820 0.000000 0.000000 0.000000 
-0.039652 0.963547 0.057828 1.072673 -11.836045 14.402248 1.705772 -0.939116 -14.323750 -4.603602 0.617268 0.179663 16.210834 26.673742 24.346255 0.000000 0.000000 0.000000 -6.202257 2.111841 -24.049580 4.800635 -0.238553 9.737377 6.687836 3.183744 17.488374 0.000000 0.000000 0.000000 0.975606 -0.605669 16.358518 12.635641 -2.071887 -24.614649 -1.158677 -4.908320 23.375502 -2.964615 1.469773 -26.654081 0.000000 0.000000 0.000000 -33.423608 1.568770 1.783316 -34.765225 -4.985168 -5.523371 -77.024122 -69.772309 66.120314 0.000000 0.000000 0.000000 21.311602 5.660953 -1.958390 38.903893 -12.859613 -7.784825 122.841476 75.262721 108.176171 0.000000 0.000000 0.000000 
-0.045176 0.963818 0.057908 1.287252 -10.164732 14.424101 1.921447 -0.987031 -15.101114 -4.933547 0.658684 1.130416 16.142913 26.826089 24.009104 0.000000 0.000000 0.000000 -6.059595 1.997440 -23.622864 5.027541 -0.320622 9.349787 5.786754 1.896829 17.371084 0.000000 0.000000 0.000000 0.544460 -0.549627 15.741264 12.019179 -1.931677 -24.793437 -1.143414 -4.913674 23.655882 -3.021151 1.642639 -27.009845 0.000000 0.000000 0.000000 -33.397341 1.713269 1.214041 -34.894623 -5.083248 -5.415345 -76.901938 -70.594462 66.567798 0.000000 0.000000 0.000000 20.737968 5.169770 -1.777075 39.507936 -13.113814 -8.142563 121.911192 73.132176 105.345314 0.000000 0.000000 0.000000 
-0.050367 0.962599 0.054068 1.164655 -8.524572 15.280483 2.971877 -0.985210 -17.055697 -5.906629 0.801288 2.198895 16.070177 26.988866 23.469980 0.000000 0.000000 0.000000 -5.400110 2.128443 -24.991172 5.392823 -0.414329 9.723899 3.975274 -1.339586 17.919254 0.000000 0.000000 0.000000 -0.220643 -0.442555 16.001726 12.248979 -1.855041 -25.496282 -1.619064 -3.964160 23.831076 -2.359717 1.564562 -26.573775 0.000000 0.000000 0.000000 -32.805243 1.392341 0.537882 -35.569661 -4.724000 -5.338897 -73.038334 -71.369867 63.319643 0.000000 0.000000 0.000000 21.754961 5.916686 -0.851443 38.573720 -11.893415 -7.662433 122.118443 73.098695 106.617557 0.000000 0.000000 0.000000 
-0.054229 0.959941 0.045857 1.201211 -7.241944 16.580901 4.077606 -1.004778 -21.016412 -7.080745 1.056505 4.953595 16.449130 27.481419 24.171647 0.000000 0.000000 0.000000 -5.452903 2.280427 -27.574984 5.972240 -0.544523 11.176870 2.817997 -2.936007 17.502100 0.000000 0.000000 0.000000 -1.080614 -0.315511 17.767575 11.595045 -1.602231 -26.227089 -1.309079 -2.351301 24.262480 -1.893055 1.730905 -28.708722 0.000000 0.000000 0.000000 -31.966689 0.215336 0.344750 -36.563873 -6.532123 -4.716204 -61.300720 -72.452263 53.502753 0.000000 0.000000 0.000000 21.787441 7.866707 1.102601 39.375983 -7.506499 -6.757628 126.593328 76.131241 116.199878 0.000000 0.000000 0.000000 
-0.055760 0.956343 0.034350 1.144670 -6.902827 18.676031 4.879058 -0.976643 -25.316345 -7.687810 1.219561 6.511196 17.214557 28.224022 25.644303 0.000000 0.000000 0.000000 -5.628046 2.669677 -32.421866 6.859650 -0.734465 13.201145 1.114579 -6.759205 20.143864 0.000000 0.000000 0.000000 -1.547964 -0.229470 20.556009 10.534880 -1.228813 -27.314685 -0.507596 0.159317 23.939591 -2.290875 2.308868 -27.425313 0.000000 0.000000 0.000000 -31.660044 -1.108706 0.059791 -37.417910 -7.902607 -4.052176 -46.490232 -72.380908 40.510734 0.000000 0.000000 0.000000 21.371138 9.642583 3.100909 38.733541 -0.976037 -4.979210 138.603279 79.354335 134.504720 0.000000 0.000000 0.000000 
-0.054039 0.952516 0.019951 1.474254 -7.072120 21.129647 5.378239 -0.906674 -30.898123 -8.477381 1.477263 8.565106 9.407864 19.124135 13.401340 0.000000 0.000000 0.000000 -6.821654 2.859836 -37.328633 7.727428 -0.932371 14.434479 0.288169 -8.803443 22.482373 0.000000 0.000000 0.000000 -1.739562 -0.158898 23.381867 8.781623 -0.869140 -27.482962 -0.407936 2.740042 23.580346 -1.396674 2.189839 -26.700570 0.000000 0.000000 0.000000 -32.485393 -3.639337 0.690452 -36.876254 -11.516959 -2.727739 -25.283058 -69.635678 22.330456 0.000000 0.000000 0.000000 19.302472 13.848988 6.353934 37.802489 6.658855 -2.959252 -173.852762 83.722337 -167.783871 0.000000 0.000000 0.000000 
-0.049268 0.947192 0.003609 1.539435 -7.079408 23.712192 5.522108 -0.860015 -36.153769 -8.754076 1.618211 10.171695 8.768326 18.238857 10.954297 0.000000 0.000000 0.000000 -8.130409 2.982246 -43.053467 8.738738 -1.217268 16.374372 -0.812330 -11.294004 25.864205 0.000000 0.000000 0.000000 -1.275971 -0.287558 26.655053 6.318786 -0.384539 -27.898732 0.328374 4.774628 22.920223 -1.793676 2.611778 -24.507248 0.000000 0.000000 0.000000 -33.191803 -7.314605 2.364287 -35.432827 -14.083467 -1.699751 -9.621443 -66.954204 10.299702 0.000000 0.000000 0.000000 16.060735 17.118836 8.539285 34.729845 15.045339 -0.816186 -106.127509 79.916796 -89.579821 0.000000 0.000000 0.000000 
-0.043175 0.939162 -0.012099 1.761906 -6.837664 26.539499 6.031331 -0.686134 -41.473912 -9.554701 1.817931 10.929681 8.883333 18.510457 12.968857 0.000000 0.000000 0.000000 -9.802206 2.780600 -48.509661 9.773226 -1.535392 17.191976 -2.417382 -14.241877 29.743923 0.000000 0.000000 0.000000 -0.847424 -0.457175 30.717455 4.574389 -0.030217 -28.646458 0.451482 5.633265 23.234118 -1.271698 2.545797 -26.655430 0.000000 0.000000 0.000000 -30.754263 -9.842399 3.754418 -36.086918 -17.806606 -0.610509 2.567621 -65.278042 2.197048 0.000000 0.000000 0.000000 10.358340 20.415246 9.719834 32.135225 21.682227 0.692213 -90.013601 69.808285 -62.581494 0.000000 0.000000 0.000000 
-0.037649 0.928340 -0.023997 1.620187 -6.928456 29.682534 6.472926 -0.362808 -47.544394 -9.233299 1.849201 12.748410 8.879486 18.597043 15.177701 0.000000 0.000000 0.000000 -11.278452 2.596043 -54.343670 11.340845 -2.031524 18.590672 -5.025804 -18.142961 32.784844 0.000000 0.000000 0.000000 -0.668922 -0.526147 34.698278 2.959622 0.335157 -30.235870 1.147869 6.271948 23.584120 -1.743685 2.861881 -27.216161 0.000000 0.000000 0.000000 -29.019692 -12.267298 5.198044 -35.053693 -19.713582 -0.103821 11.756541 -64.856808 -3.635957 0.000000 0.000000 0.000000 7.191937 21.974748 10.145352 28.793840 25.021761 1.088443 -87.472141 62.796614 -52.982004 0.000000 0.000000 0.000000 
-0.032738 0.916861 -0.030751 1.476731 -7.124264 32.582596 7.620746 0.357097 -52.409673 -9.984069 2.119452 14.050026 8.228435 17.716736 16.146488 0.000000 0.000000 0.000000 -12.842403 2.209652 -59.175869 12.536593 -2.424605 19.230517 -6.605594 -20.457768 36.005517 0.000000 0.000000 0.000000 -0.713385 -0.466618 38.540276 2.166904 0.481723 -30.763657 1.899399 5.725512 23.781075 -2.124899 3.004630 -29.792607 0.000000 0.000000 0.000000 -26.452332 -13.326155 6.147933 -36.008084 -21.628115 0.387552 17.311432 -64.830961 -6.857965 0.000000 0.000000 0.000000 3.150395 22.662297 9.674904 29.182734 27.525376 1.790140 -91.411647 59.668961 -52.858921 0.000000 0.000000 0.000000 
-0.028011 0.905588 -0.031701 1.337725 -7.495904 35.149439 7.687572 0.743842 -57.054730 -9.576174 2.207840 16.764642 7.931149 17.361634 15.642271 0.000000 0.000000 0.000000 -14.674740 1.583360 -63.229165 14.226952 -3.013181 20.350559 -7.508485 -21.774158 37.074955 0.000000 0.000000 0.000000 -0.504363 -0.481187 41.814187 1.788069 0.560643 -31.257436 2.124972 5.267706 23.102063 -2.726580 3.191056 -30.931308 0.000000 0.000000 0.000000 -24.126298 -14.125416 6.808335 -36.864391 -23.265423 0.949397 19.560584 -64.594972 -8.004516 0.000000 0.000000 0.000000 0.966317 22.177887 9.114711 30.677886 28.574481 2.366940 -91.610702 59.462208 -52.677662 0.000000 0.000000 0.000000 
-0.022543 0.896523 -0.027826 1.472324 -8.010362 36.826080 7.917041 1.208501 -60.217273 -10.318888 2.611531 19.085564 7.701959 17.046429 15.051066 0.000000 0.000000 0.000000 -16.080107 1.067678 -66.008231 15.313817 -3.475638 21.661069 -9.072016 -23.868887 37.457914 0.000000 0.000000 0.000000 -0.192646 -0.511664 44.487908 1.898893 0.586296 -31.978430 2.457765 4.249365 23.297713 -2.971918 3.141808 -32.051473 0.000000 0.000000 0.000000 -24.442726 -15.011554 7.973015 -35.729708 -24.642421 1.073752 22.296563 -63.743093 -9.204601 0.000000 0.000000 0.000000 0.335801 21.732111 8.766299 31.732028 28.451620 2.494999 -89.781566 60.363509 -52.435814 0.000000 0.000000 0.000000 
-0.016136 0.889709 -0.021484 1.446219 -9.233105 37.822937 7.624932 1.637857 -62.366656 -10.962261 3.092175 21.719614 8.403095 18.050531 13.718889 0.000000 0.000000 0.000000 -17.152295 0.986716 -68.023509 16.013732 -3.788944 22.878599 -10.493791 -25.872236 38.431458 0.000000 0.000000 0.000000 0.148187 -0.369910 47.937899 2.339791 0.573553 -32.701906 2.333937 3.237429 22.990629 -3.633986 3.235855 -33.765490 0.000000 0.000000 0.000000 -23.779437 -15.467391 8.827502 -35.804185 -26.723265 1.564666 23.468955 -63.726313 -9.501146 0.000000 0.000000 0.000000 -0.141091 20.958031 8.322449 33.206943 27.756506 2.524763 -87.113563 63.684262 -54.005700 0.000000 0.000000 0.000000 
-0.008992 0.883307 -0.014661 1.508027 -10.551650 39.447153 7.193833 2.107981 -65.032996 -11.687009 3.614368 24.050491 9.060838 19.042556 12.867080 0.000000 0.000000 0.000000 -18.491619 0.786707 -70.403607 16.604457 -4.018728 23.369874 -12.527152 -28.501134 40.571526 0.000000 0.000000 0.000000 0.839985 -0.408670 49.514560 2.661379 0.542160 -32.777592 2.114413 2.147055 23.022155 -3.976343 3.177147 -36.096923 0.000000 0.000000 0.000000 -21.673239 -15.390182 9.231172 -37.005948 -28.489915 2.145887 27.334948 -65.760710 -11.777269 0.000000 0.000000 0.000000 -1.390068 20.240928 7.787480 33.573294 26.467019 2.220827 -84.016494 65.953657 -54.411586 0.000000 0.000000 0.000000 
-0.001903 0.877963 -0.008710 1.611928 -12.116124 40.594616 6.360486 2.449690 -67.719140 -11.890458 4.078016 27.170538 9.655227 19.923095 12.646946 0.000000 0.000000 0.000000 -19.924516 0.588817 -72.534364 17.480228 -4.420216 24.478372 -14.116247 -30.580998 41.331150 0.000000 0.000000 0.000000 1.720241 -0.439779 52.206918 2.985765 0.541748 -33.385665 1.685712 0.626946 22.766156 -4.347852 3.084826 -36.827424 0.000000 0.000000 0.000000 -19.879120 -15.486285 9.816972 -37.559534 -30.651167 2.885189 37.250244 -67.296610 -18.051817 0.000000 0.000000 0.000000 -4.361576 18.380731 6.758083 35.791398 25.399855 2.176245 -86.548809 68.572954 -60.018007 0.000000 0.000000 0.000000 
0.004478 0.871276 -0.004379 1.186906 -13.961896 41.812406 6.439430 3.557298 -69.354261 -13.100858 4.821088 28.507904 10.564449 21.224419 11.706550 0.000000 0.000000 0.000000 -21.144504 0.775842 -74.662520 18.187091 -4.650425 24.747102 -15.555455 -32.444681 43.573538 0.000000 0.000000 0.000000 2.203809 -0.056959 54.277322 3.812947 0.395597 -32.755299 0.861185 -0.728020 22.718050 -4.956691 3.087113 -37.412305 0.000000 0.000000 0.000000 -14.880505 -15.144057 9.425983 -39.251267 -32.570066 4.025163 50.885445 -66.467265 -26.181891 0.000000 0.000000 0.000000 -6.172666 17.599332 6.361314 37.276050 24.876129 2.049600 -92.078621 69.453926 -66.878578 0.000000 0.000000 0.000000 
